<?xml version="1.0" standalone="no"?><!DOCTYPE svg PUBLIC "-//W3C//DTD SVG 1.1//EN" "http://www.w3.org/Graphics/SVG/1.1/DTD/svg11.dtd"><svg t="1564630275880" class="icon" viewBox="0 0 1024 1024" version="1.1" xmlns="http://www.w3.org/2000/svg" p-id="1879" xmlns:xlink="http://www.w3.org/1999/xlink" width="200" height="200"><defs><style type="text/css"></style></defs><path d="M881.112 95.261H142.889C63.972 95.261 0.007 159.237 0.007 238.143v547.714c0 78.906 63.964 142.882 142.882 142.882h738.224c78.918 0 142.882-63.976 142.882-142.882V238.143c-0.001-78.906-63.965-142.882-142.883-142.882z m-13.93 95.255L512 389.001 156.819 190.516h710.363z m13.93 642.968H142.889c-26.267 0-47.627-21.372-47.627-47.627v-520.61L488.769 485.14A47.574 47.574 0 0 0 512 491.187a47.57 47.57 0 0 0 23.232-6.047l393.507-219.893v520.61c0 26.255-21.36 47.627-47.627 47.627z" fill="#040000" p-id="1880"></path></svg>