<?xml version="1.0" standalone="no"?><!DOCTYPE svg PUBLIC "-//W3C//DTD SVG 1.1//EN" "http://www.w3.org/Graphics/SVG/1.1/DTD/svg11.dtd"><svg t="1565064543330" class="icon" viewBox="0 0 1024 1024" version="1.1" xmlns="http://www.w3.org/2000/svg" p-id="3650" xmlns:xlink="http://www.w3.org/1999/xlink" width="200" height="200"><defs><style type="text/css"></style></defs><path d="M512 288c-124.8 0-224 99.2-224 224s99.2 224 224 224 224-99.2 224-224-99.2-224-224-224z m0 384c-89.6 0-160-70.4-160-160s70.4-160 160-160 160 70.4 160 160-70.4 160-160 160z" p-id="3651" fill="#ffffff"></path><path d="M864 224h-128c-19.2 0-32-12.8-32-32v-32c0-35.2-28.8-64-64-64h-256c-35.2 0-64 28.8-64 64v32c0 19.2-12.8 32-32 32h-128c-54.4 0-96 41.6-96 96v448c0 54.4 41.6 96 96 96h704c54.4 0 96-41.6 96-96v-448c0-54.4-41.6-96-96-96z m32 544c0 19.2-12.8 32-32 32h-704c-19.2 0-32-12.8-32-32v-448c0-19.2 12.8-32 32-32h128c54.4 0 96-41.6 96-96v-32h256v32c0 54.4 41.6 96 96 96h128c19.2 0 32 12.8 32 32v448z" p-id="3652" fill="#ffffff"></path></svg>