<?xml version="1.0" standalone="no"?><!DOCTYPE svg PUBLIC "-//W3C//DTD SVG 1.1//EN" "http://www.w3.org/Graphics/SVG/1.1/DTD/svg11.dtd"><svg t="1565064702614" class="icon" viewBox="0 0 1024 1024" version="1.1" xmlns="http://www.w3.org/2000/svg" p-id="2974" xmlns:xlink="http://www.w3.org/1999/xlink" width="200" height="200"><defs><style type="text/css"></style></defs><path d="M743.905882 219.858824l-60.235294-90.352942h-361.411764l-60.235295 90.352942H39.152941v692.705882h963.764706v-692.705882h-259.011765z m198.776471 632.470588h-843.294118v-572.235294h195.764706l60.235294-90.352942h298.164706l60.235294 90.352942h228.894118v572.235294z" fill="#e6e6e6" p-id="2975"></path><path d="M502.964706 292.141176c-132.517647 0-240.941176 108.423529-240.941177 240.941177s108.423529 240.941176 240.941177 240.941176 240.941176-108.423529 240.941176-240.941176-108.423529-240.941176-240.941176-240.941177z m0 421.647059c-99.388235 0-180.705882-81.317647-180.705882-180.705882s81.317647-180.705882 180.705882-180.705882 180.705882 81.317647 180.705882 180.705882-81.317647 180.705882-180.705882 180.705882z" fill="#e6e6e6" p-id="2976"></path><path d="M834.258824 364.423529m-42.164706 0a42.164706 42.164706 0 1 0 84.329411 0 42.164706 42.164706 0 1 0-84.329411 0Z" fill="#e6e6e6" p-id="2977"></path></svg>