<?xml version="1.0" standalone="no"?><!DOCTYPE svg PUBLIC "-//W3C//DTD SVG 1.1//EN" "http://www.w3.org/Graphics/SVG/1.1/DTD/svg11.dtd"><svg t="1565091317754" class="icon" viewBox="0 0 1024 1024" version="1.1" xmlns="http://www.w3.org/2000/svg" p-id="2246" xmlns:xlink="http://www.w3.org/1999/xlink" width="200" height="200"><defs><style type="text/css"></style></defs><path d="M1012.1 769.6c-12.3 12.6-32.4 12.6-45 0.4L512 322.6 57 770c-12.6 12.3-32.7 12.2-45-0.4-12.3-12.5-12.2-32.7 0.4-45l477.3-469.4c2-2 4.5-3.2 6.9-4.5 1.2-0.7 2.2-1.8 3.5-2.3 3.8-1.6 7.9-2.4 12-2.4s8.1 0.8 12 2.4c1.3 0.5 2.3 1.6 3.5 2.3 2.4 1.3 4.8 2.5 6.9 4.5l477.3 469.4c12.4 12.3 12.6 32.5 0.3 45z" fill="#333234" p-id="2247"></path></svg>