<?xml version="1.0" standalone="no"?><!DOCTYPE svg PUBLIC "-//W3C//DTD SVG 1.1//EN" "http://www.w3.org/Graphics/SVG/1.1/DTD/svg11.dtd"><svg t="1567481127284" class="icon" viewBox="0 0 1024 1024" version="1.1" xmlns="http://www.w3.org/2000/svg" p-id="3162" xmlns:xlink="http://www.w3.org/1999/xlink" width="200" height="200"><defs><style type="text/css"></style></defs><path d="M452.898816 958.877696c-190.181376 0-344.899584-154.7264-344.899584-344.899584s154.722304-344.899584 344.899584-344.899584c46.563328 0 91.72992 9.121792 134.254592 27.103232l-11.071488 26.177536c-39.002112-16.502784-80.44544-24.866816-123.183104-24.866816-174.51008 0-316.481536 141.971456-316.481536 316.481536s141.975552 316.481536 316.481536 316.481536 316.481536-141.971456 316.481536-316.481536c0-13.68064-0.88064-27.447296-2.617344-40.914944a318.50496 318.50496 0 0 0-4.018176-23.896064l27.824128-5.771264a345.7024 345.7024 0 0 1 7.22944 70.582272c0 190.17728-154.722304 344.90368-344.899584 344.90368z" fill="#429DD7" p-id="3163"></path><path d="M727.06048 455.76192c-23.764992-41.091072-57.110528-76.947456-96.423936-103.69024l15.986688-23.494656c42.827776 29.130752 79.147008 68.186112 105.037824 112.959488l-24.600576 14.225408zM186.0608 613.974016H167.1168c0-157.577216 128.200704-285.782016 285.782016-285.782016v18.944c-147.132416 0.004096-266.838016 119.7056-266.838016 266.838016zM452.898816 899.74784v-18.944c147.132416 0 266.829824-119.693312 266.829824-266.825728h18.944c0 157.57312-128.200704 285.769728-285.773824 285.769728zM300.945408 613.974016h-18.944c0-94.236672 76.664832-170.897408 170.897408-170.897408v18.944c-83.787776 0.004096-151.953408 68.169728-151.953408 151.953408zM452.898816 784.871424v-18.944c83.78368 0 151.945216-68.169728 151.945216-151.949312h18.944c0 94.232576-76.660736 170.893312-170.889216 170.893312z" fill="#429DD7" p-id="3164"></path><path d="M452.898816 733.151232c-65.716224 0-119.181312-53.460992-119.181312-119.177216s53.465088-119.185408 119.181312-119.185408c4.427776 0 8.937472 0.249856 13.406208 0.749568l-2.101248 18.833408a101.167104 101.167104 0 0 0-11.30496-0.638976c-55.267328 0-100.237312 44.965888-100.237312 100.241408 0 55.263232 44.965888 100.22912 100.237312 100.22912s100.22912-44.965888 100.22912-100.22912c0-3.395584-0.167936-6.733824-0.495616-10.027008l18.853888-1.888256c0.393216 3.923968 0.585728 7.888896 0.585728 11.915264 0 65.716224-53.460992 119.177216-119.17312 119.177216z" fill="#429DD7" p-id="3165"></path><path d="M452.898816 649.285632c-19.472384 0-35.315712-15.835136-35.315712-35.311616s15.843328-35.319808 35.315712-35.319808 35.315712 15.847424 35.315712 35.319808-15.843328 35.311616-35.315712 35.311616z m0-51.683328a16.388096 16.388096 0 0 0-16.367616 16.371712 16.384 16.384 0 0 0 16.367616 16.36352 16.384 16.384 0 0 0 16.367616-16.36352 16.388096 16.388096 0 0 0-16.367616-16.371712zM234.27072 613.974016H215.32672c0-130.998272 106.573824-237.576192 237.572096-237.576192v18.944c-120.553472 0.004096-218.628096 98.07872-218.628096 218.632192zM452.898816 851.542016v-18.944c120.549376 0 218.624-98.074624 218.624-218.619904h18.944c0 130.994176-106.569728 237.563904-237.568 237.563904z" fill="#429DD7" p-id="3166"></path><path d="M553.377792 610.689024c-54.816768 0-99.405824-41.295872-99.405824-92.061696s44.593152-92.061696 99.405824-92.061696c6.766592 0 13.451264 0.630784 20.000768 1.875968V129.482752l344.1664-61.100032v409.923584c0 50.765824-44.593152 92.061696-99.405824 92.061696-13.27104 0-26.15296-2.37568-38.289408-7.0656a104.841216 104.841216 0 0 1-9.691136-4.337664c-31.719424-16.19968-51.42528-47.104-51.42528-80.658432 0-50.765824 44.593152-92.061696 99.401728-92.061696 6.135808 0 12.210176 0.516096 18.182144 1.552384V199.573504l-183.533568 33.97632v285.077504c0 50.76992-44.593152 92.061696-99.405824 92.061696z m0-155.705344c-39.145472 0-70.987776 28.54912-70.987776 63.643648s31.8464 63.643648 70.987776 63.643648 70.987776-28.54912 70.987776-63.643648V209.907712l240.369664-44.486656v261.423104l-19.21024-7.225344a77.443072 77.443072 0 0 0-27.389952-4.960256c-39.141376 0-70.98368 28.54912-70.98368 63.643648 0 22.822912 13.770752 44.023808 35.934208 55.345152 2.269184 1.155072 4.608 2.21184 7.016448 3.145728a77.6192 77.6192 0 0 0 28.033024 5.152768c39.145472 0 70.987776-28.54912 70.987776-63.643648v-376.0128l-287.330304 50.999296v315.068416l-19.49696-7.815168a77.275136 77.275136 0 0 0-28.91776-5.558272z" fill="#ED743B" p-id="3167"></path></svg>