<?xml version="1.0" standalone="no"?><!DOCTYPE svg PUBLIC "-//W3C//DTD SVG 1.1//EN" "http://www.w3.org/Graphics/SVG/1.1/DTD/svg11.dtd"><svg t="1564994167342" class="icon" viewBox="0 0 1024 1024" version="1.1" xmlns="http://www.w3.org/2000/svg" p-id="5474" xmlns:xlink="http://www.w3.org/1999/xlink" width="200" height="200"><defs><style type="text/css"></style></defs><path d="M0.284287 512a512 511.715713 90 1 0 1023.431426 0 512 511.715713 90 1 0-1023.431426 0Z" fill="" p-id="5475"></path><path d="M593.874514 731.75347a28.428651 28.428651 0 0 0 21.321488-9.950027 28.428651 28.428651 0 0 0-2.842865-40.084398l-195.589117-170.571905 195.589117-170.571904a28.428651 28.428651 0 0 0-37.241532-43.211549l-220.322044 191.324819a28.428651 28.428651 0 0 0-9.950027 21.321488 28.428651 28.428651 0 0 0 9.950027 21.605775l220.322044 191.040533a28.428651 28.428651 0 0 0 18.762909 9.097168z" fill="#FFFFFF" p-id="5476"></path></svg>