<?xml version="1.0" standalone="no"?><!DOCTYPE svg PUBLIC "-//W3C//DTD SVG 1.1//EN" "http://www.w3.org/Graphics/SVG/1.1/DTD/svg11.dtd"><svg t="1564626823745" class="icon" viewBox="0 0 1024 1024" version="1.1" xmlns="http://www.w3.org/2000/svg" p-id="5619" xmlns:xlink="http://www.w3.org/1999/xlink" width="16" height="16"><defs><style type="text/css"></style></defs><path d="M940.830789 857.951173 767.234055 684.340113c47.230698-64.535829 75.116815-144.120398 75.116815-230.218312 0-215.522612-174.7193-390.247029-390.254192-390.247029-215.532845 0-390.251122 174.724417-390.251122 390.247029 0 215.519542 174.7193 390.233726 390.251122 390.233726 86.10303 0 165.689646-27.885094 230.228545-75.112722l173.602873 173.612083c23.444968 23.450085 61.45363 23.450085 84.901669 0C964.278827 919.405827 964.278827 881.406374 940.830789 857.951173zM121.886001 454.121801c0-182.350095 147.842163-330.207607 330.2117-330.207607 182.374654 0 330.216817 147.857513 330.216817 330.207607 0 182.372607-147.842163 330.199421-330.216817 330.199421C269.728164 784.321222 121.886001 636.494409 121.886001 454.121801z" p-id="5620"></path></svg>