<?xml version="1.0" encoding="UTF-8" standalone="no"?>
<!DOCTYPE svg PUBLIC "-//W3C//DTD SVG 1.1//EN" "http://www.w3.org/Graphics/SVG/1.1/DTD/svg11.dtd">
<svg t="1564994054767" class="icon" viewBox="0 0 1024 1024" version="1.1" xmlns="http://www.w3.org/2000/svg" p-id="4702" xmlns:xlink="http://www.w3.org/1999/xlink" width="200" height="200"><defs><style type="text/css"/></defs><path d="M962.315102 213.634612c-10.458189-11.901051-25.541723-18.729573-41.384549-18.733667l-678.028361-0.183172c-4.663206-0.001023-8.609075-3.445472-9.241478-8.064676l-13.902638-101.536534c-4.000104-29.215392-29.253254-51.346435-58.739822-51.477418L56.600089 33.17047c-16.321734-0.073678-29.612435 13.098319-29.686113 29.420053l-0.033769 7.407714c-0.073678 16.321734 13.098319 29.612435 29.421077 29.686113l98.375541 0.441045 77.927837 569.135278c1.337461 49.16884 41.750893 88.75544 91.236957 88.75544l507.133156 0c49.532113 0 89.975221-39.658232 91.241051-88.890516l53.355185-412.039357C977.605344 241.374396 972.773292 225.536686 962.315102 213.634612zM904.543328 287.651372l-48.53439 374.822734-0.276293 2.12643 0 2.14485c0 13.673417-11.084453 24.756847-24.756847 24.756847L323.842643 691.502233c-13.673417 0-24.756847-11.084453-24.756847-24.756847l0-2.266623L247.489674 287.654442c-1.913583-13.972223 8.947789-26.417673 23.049972-26.41358l610.943476 0.164752C895.511627 261.408685 906.344347 273.738501 904.543328 287.651372z" p-id="4703"/><path d="M362.938056 813.192783c-53.886281 0-97.725742 43.839461-97.725742 97.725742s43.839461 97.725742 97.725742 97.725742 97.725742-43.839461 97.725742-97.725742S416.824337 813.192783 362.938056 813.192783zM362.938056 942.129364c-17.209964 0-31.210839-14.001899-31.210839-31.210839s14.000875-31.210839 31.210839-31.210839 31.210839 14.001899 31.210839 31.210839S380.14802 942.129364 362.938056 942.129364z" p-id="4704"/><path d="M801.488207 813.192783c-53.886281 0-97.725742 43.839461-97.725742 97.725742s43.839461 97.725742 97.725742 97.725742 97.725742-43.839461 97.725742-97.725742S855.374488 813.192783 801.488207 813.192783zM801.488207 942.129364c-17.20894 0-31.210839-14.001899-31.210839-31.210839s14.001899-31.210839 31.210839-31.210839 31.210839 14.001899 31.210839 31.210839S818.698171 942.129364 801.488207 942.129364z" p-id="4705"/></svg>