<?xml version="1.0" standalone="no"?><!DOCTYPE svg PUBLIC "-//W3C//DTD SVG 1.1//EN" "http://www.w3.org/Graphics/SVG/1.1/DTD/svg11.dtd"><svg t="1564996315212" class="icon" viewBox="0 0 1024 1024" version="1.1" xmlns="http://www.w3.org/2000/svg" p-id="2824" xmlns:xlink="http://www.w3.org/1999/xlink" width="200" height="200"><defs><style type="text/css"></style></defs><path d="M745 926a55.45 55.45 0 0 1-25.84-6.43l-200-105.14a15.39 15.39 0 0 0-14.36 0l-200 105.14a55.44 55.44 0 0 1-80.6-57.38 412 412 0 0 1 13.48-78C271.32 661.58 339.27 575.37 429 541.35c29.35-11.12 98.08-37.16 164.76-0.36 35.09 19.36 61.65 52.59 76.81 96.1a236.4 236.4 0 0 1 13 65.63 20 20 0 1 1-40 1.33c-0.12-3.74-3.78-92-69.13-128-50.48-27.86-105-7.19-131.25 2.75-104.54 39.58-149.46 152.26-166.92 215.9a371.37 371.37 0 0 0-12.22 71.23l-0.07 1-0.16 1a15.44 15.44 0 0 0 22.39 16.27l200-105.2a55.41 55.41 0 0 1 51.58 0l200 105.15a15.44 15.44 0 0 0 22.39-16.27L722 645.17a55.44 55.44 0 0 1 15.95-49.07l161.8-157.71a15.43 15.43 0 0 0-8.56-26.32l-223.6-32.49a55.4 55.4 0 0 1-41.73-30.33l-100-202.62a15.44 15.44 0 0 0-27.68 0l-100 202.62a55.4 55.4 0 0 1-41.73 30.33l-223.63 32.49a15.43 15.43 0 0 0-8.55 26.32l87.15 85a87.42 87.42 0 0 1 33.72 63.38c1.48 23.24-6.43 45.14-21.72 60.08-14.11 13.8-33.36 20.73-53.21 20.73a88.55 88.55 0 0 1-55.06-19.41 20 20 0 0 1 25-31.24c19.25 15.4 43.7 12.68 55.32 1.32 6.84-6.69 10.49-17.51 9.76-28.94a47.47 47.47 0 0 0-19-34.81l-1-0.76L96.35 467a55.44 55.44 0 0 1 30.72-94.55L350.68 340a15.4 15.4 0 0 0 11.61-8.44l100-202.62a55.44 55.44 0 0 1 99.42 0l100 202.62a15.4 15.4 0 0 0 11.61 8.44l223.61 32.49A55.44 55.44 0 0 1 927.65 467l-161.8 157.75a15.41 15.41 0 0 0-4.44 13.66l38.2 222.7A55.55 55.55 0 0 1 745 926z" p-id="2825"></path></svg>