<?xml version="1.0" standalone="no"?><!DOCTYPE svg PUBLIC "-//W3C//DTD SVG 1.1//EN" "http://www.w3.org/Graphics/SVG/1.1/DTD/svg11.dtd"><svg t="1564996172564" class="icon" viewBox="0 0 1024 1024" version="1.1" xmlns="http://www.w3.org/2000/svg" p-id="1974" xmlns:xlink="http://www.w3.org/1999/xlink" width="200" height="200"><defs><style type="text/css"></style></defs><path d="M325.410859 599.99717c0 0 72.385611 108.681258 216.932728 82.374102 0 0 133.358287-22.237467 152.667052-172.986843 0 0-42.392506 18.912745-32.147164-24.708751 0 0 77.243245-79.170131 88.37784 16.476253 0 0 31.841196 215.935004-224.966705 238.878552C526.27461 740.031507 370.826212 747.418754 325.410859 599.99717z" p-id="1975"></path><path d="M548.078195 301.314557c19.357883 0 35.049261 18.535145 35.049261 41.400922 0 22.864754-15.691377 41.400922-35.049261 41.400922-19.35686 0-35.047214-18.535145-35.047214-41.400922C513.030981 319.849702 528.721335 301.314557 548.078195 301.314557z" p-id="1976"></path><path d="M368.814392 300.107055c19.84907 0 35.938514 19.076474 35.938514 42.609447 0 23.531949-16.089443 42.608423-35.938514 42.608423-19.847024 0-35.93749-19.076474-35.93749-42.608423C332.876901 319.182506 348.968391 300.107055 368.814392 300.107055z" p-id="1977"></path><path d="M504.864998 903.55993c-51.646264 0-101.751429-10.328229-148.923798-30.698163-45.543266-19.666922-86.439698-47.816029-121.553427-83.664491-35.099403-35.83516-62.654992-77.561493-81.903382-124.020618-19.923772-48.092321-30.02585-99.17065-30.02585-151.816684s10.102079-103.724363 30.02585-151.816684c19.24839-46.459125 46.803979-88.186482 81.903382-124.019595 35.113729-35.849486 76.010161-63.99757 121.553427-83.664491 47.172369-20.369933 97.277534-30.698163 148.923798-30.698163 44.929282 0 88.88233 7.867178 130.701784 23.387663 42.391483-17.326621 89.654926-26.107611 140.5552-26.107611 67.237357 0 116.231211 15.329127 118.283963 15.981996 3.898797 1.239224 6.684236 4.680603 7.084349 8.752338s-1.663896 7.988951-5.246491 9.961886c-1.066285 0.589424-105.892749 59.259662-89.549525 118.602212 1.639337 2.146896 3.263323 4.321422 4.846378 6.485715 49.542346 67.74901 75.729775 148.366096 75.729775 233.133711 0 52.646034-10.102079 103.724363-30.026874 151.816684-19.24839 46.459125-46.803979 88.186482-81.903382 124.020618-35.112706 35.848463-76.009138 63.99757-121.552403 83.664491C606.616426 893.231701 556.511261 903.55993 504.864998 903.55993zM504.864998 143.626141c-199.574385 0-361.939309 165.861562-361.939309 369.733832s162.364925 369.733832 361.939309 369.733832c199.574385 0 361.939309-165.862585 361.939309-369.733832 0-80.394005-24.823362-156.833955-71.78493-221.054605-1.855254-2.538823-3.773953-5.092995-5.701862-7.590885-0.737804-0.956791-1.300622-2.035356-1.662873-3.188622-17.835204-56.857962 43.792389-108.053971 77.833693-131.261533-20.084431-4.256954-51.957349-9.357112-89.36533-9.357112-49.671283 0-95.55531 8.770757-136.378064 26.070772-2.438539 1.034563-5.185093 1.081635-7.656377 0.132006C591.465354 151.526065 548.66148 143.626141 504.864998 143.626141z" p-id="1978"></path></svg>