<?xml version="1.0" standalone="no"?><!DOCTYPE svg PUBLIC "-//W3C//DTD SVG 1.1//EN" "http://www.w3.org/Graphics/SVG/1.1/DTD/svg11.dtd"><svg t="1567065313260" class="icon" viewBox="0 0 1024 1024" version="1.1" xmlns="http://www.w3.org/2000/svg" p-id="3997" xmlns:xlink="http://www.w3.org/1999/xlink" width="200" height="200"><defs><style type="text/css"></style></defs><path d="M429.8 87.7H147.2c-33.1 0-60 26.9-60 60v282.6c0 33.1 26.9 60 60 60h282.6c33.1 0 60-26.9 60-60V147.7c0-33.1-26.9-60-60-60z m0 342.6H147.2V147.8s0.1-0.1 0-0.1h282.5s0.1 0.1 0.1 0v282.6c0.1 0 0 0 0 0zM876.8 87.7H594.2c-33.1 0-60 26.9-60 60v282.6c0 33.1 26.9 60 60 60h282.6c33.1 0 60-26.9 60-60V147.7c0-33.1-26.9-60-60-60z m0 342.6H594.2V147.8s0.1-0.1 0-0.1h282.5s0.1 0.1 0.1 0v282.6s-0.1 0 0 0zM429.8 533.7H147.2c-33.1 0-60 26.9-60 60v282.6c0 33.1 26.9 60 60 60h282.6c33.1 0 60-26.9 60-60V593.7c0-33.1-26.9-60-60-60z m0 342.6H147.2V593.8s0.1-0.1 0-0.1h282.5s0.1 0.1 0.1 0v282.6c0.1-0.1 0 0 0 0zM876.8 533.7H594.2c-33.1 0-60 26.9-60 60v282.6c0 33.1 26.9 60 60 60h282.6c33.1 0 60-26.9 60-60V593.7c0-33.1-26.9-60-60-60z m0 342.6H594.2V593.8s0.1-0.1 0-0.1h282.5s0.1 0.1 0.1 0v282.6c0-0.1-0.1 0 0 0z" p-id="3998"></path></svg>