<?xml version="1.0" standalone="no"?><!DOCTYPE svg PUBLIC "-//W3C//DTD SVG 1.1//EN" "http://www.w3.org/Graphics/SVG/1.1/DTD/svg11.dtd"><svg t="1568468321318" class="icon" viewBox="0 0 1024 1024" version="1.1" xmlns="http://www.w3.org/2000/svg" p-id="3329" xmlns:xlink="http://www.w3.org/1999/xlink" width="200" height="200"><defs><style type="text/css"></style></defs><path d="M929.2 468.7L533 136.5c-11.4-10.2-28.9-10.5-40.7-0.7L91.8 467.6c-7.8 5.9-12.5 15.2-12.5 25 0 17.3 14 31.3 31.3 31.3H195v255.8c0 30.9 12.1 60 34 81.9 21.9 21.9 51 34 81.9 34h259c26.4 0 51.2-10.3 69.9-29 18.7-18.7 29-43.6 29-69.9V582c0-23-9-44.6-25.3-60.9-16.3-16.3-38-25.3-61-25.3H437.8c-23 0-44.6 9-61 25.3-16.3 16.3-25.3 38-25.3 60.9v135.5c0 17.3 14 31.3 31.3 31.3s31.3-14 31.3-31.3V582c0-6.3 2.5-12.2 7-16.7s10.4-7 16.7-7h144.7c6.3 0 12.2 2.5 16.7 7s7 10.4 7 16.7v214.7c0 9.7-3.8 18.8-10.7 25.7-6.9 6.9-16 10.7-25.7 10.7h-259c-14.2 0-27.6-5.6-37.7-15.6-10.1-10.1-15.7-23.5-15.7-37.7V492.6c0-17.2-14-31.3-31.3-31.3h-28.8L512 200.6l311.1 260.7h-29.6c-17.3 0-31.3 14-31.3 31.3V822c0 2.9-1.2 5.7-3.3 7.8-2.1 2.1-4.8 3.2-7.7 3.2h-6.5c-17.2 0-31.3 14-31.3 31.3s14 31.3 31.3 31.3h6.5c19.6 0 38.1-7.7 52-21.6 13.9-13.9 21.6-32.4 21.6-52V523.9H915v-0.6c7-1.3 13.4-5.1 18-10.6 11.2-13.2 9.4-33-3.8-44z" p-id="3330"></path></svg>