<?xml version="1.0" standalone="no"?><!DOCTYPE svg PUBLIC "-//W3C//DTD SVG 1.1//EN" "http://www.w3.org/Graphics/SVG/1.1/DTD/svg11.dtd"><svg t="1564636474425" class="icon" viewBox="0 0 1024 1024" version="1.1" xmlns="http://www.w3.org/2000/svg" p-id="2078" xmlns:xlink="http://www.w3.org/1999/xlink" width="200" height="200"><defs><style type="text/css"></style></defs><path d="M725.09 679.077l156.915 156.915c16.662 16.662 16.662 43.677 0 60.34-16.663 16.662-43.678 16.662-60.34 0l-160.37-160.37c-39.083 26.866-84.256 45.858-133.421 54.527-184.82 32.589-361.066-90.82-393.655-275.64s90.82-361.065 275.64-393.654c156.038-27.514 309.317 56.45 371.116 200.095 9.313 21.646-0.685 46.742-22.331 56.055-21.646 9.313-46.743-0.685-56.056-22.331-46.243-107.487-161.065-170.385-277.911-149.782-138.408 24.405-230.826 156.391-206.42 294.8 24.404 138.407 156.39 230.825 294.799 206.42 112.819-19.893 197.598-112.397 209.036-224.656 2.389-23.443 23.33-40.51 46.772-38.122 23.443 2.388 40.51 23.329 38.122 46.771-7.277 71.421-36.75 136.833-81.896 188.632z" p-id="2079"></path></svg>