<?xml version="1.0" standalone="no"?><!DOCTYPE svg PUBLIC "-//W3C//DTD SVG 1.1//EN" "http://www.w3.org/Graphics/SVG/1.1/DTD/svg11.dtd"><svg t="1567216363160" class="icon" viewBox="0 0 1024 1024" version="1.1" xmlns="http://www.w3.org/2000/svg" p-id="7019" xmlns:xlink="http://www.w3.org/1999/xlink" width="200" height="200"><defs><style type="text/css"></style></defs><path d="M767.06828 766.074649 383.346875 766.074649c-27.38572 0-51.461045-18.137079-59.015092-44.459584l-116.169813-404.748301L64.091714 316.866764l0-122.796744 190.325743 0c27.38572 0 51.461045 18.137079 59.015092 44.459584l24.02723 83.712587 520.570189 0c19.243273 0 37.372166 9.021467 48.976458 24.370037 11.604292 15.349593 15.341407 35.251875 10.095939 53.765531l-90.962711 321.035714C818.654168 747.837286 794.530748 766.074649 767.06828 766.074649zM429.602362 643.277906l291.046702 0 56.169277-198.23897-404.113851 0L429.602362 643.277906z" p-id="7020" fill="#ff6700"></path><path d="M449.069739 894.490368m-62.930261 0a61.497 61.497 0 1 0 125.860523 0 61.497 61.497 0 1 0-125.860523 0Z" p-id="7021" fill="#ff6700"></path><path d="M701.0681 894.490368m-62.930261 0a61.497 61.497 0 1 0 125.860523 0 61.497 61.497 0 1 0-125.860523 0Z" p-id="7022" fill="#ff6700"></path></svg>