<?xml version="1.0" standalone="no"?><!DOCTYPE svg PUBLIC "-//W3C//DTD SVG 1.1//EN" "http://www.w3.org/Graphics/SVG/1.1/DTD/svg11.dtd"><svg t="1567234770404" class="icon" viewBox="0 0 1024 1024" version="1.1" xmlns="http://www.w3.org/2000/svg" p-id="4032" xmlns:xlink="http://www.w3.org/1999/xlink" width="200" height="200"><defs><style type="text/css"></style></defs><path d="M512 950.044444A438.044444 438.044444 0 0 0 950.044444 512 438.044444 438.044444 0 0 0 512 73.955556 438.044444 438.044444 0 0 0 73.955556 512 438.044444 438.044444 0 0 0 512 950.044444M512 1024a512 512 0 0 1-512-512 512 512 0 0 1 512-512 512 512 0 0 1 512 512 512 512 0 0 1-512 512" p-id="4033" fill="#707070"></path><path d="M510.577778 732.672a57.002667 57.002667 0 0 1 0 114.005333 57.002667 57.002667 0 0 1 0-114.005333zM568.888889 594.488889a56.888889 56.888889 0 1 1-113.777778 0V284.444444a56.888889 56.888889 0 1 1 113.777778 0v310.044445z" p-id="4034" fill="#707070"></path></svg>