<?xml version="1.0" standalone="no"?><!DOCTYPE svg PUBLIC "-//W3C//DTD SVG 1.1//EN" "http://www.w3.org/Graphics/SVG/1.1/DTD/svg11.dtd"><svg t="1566885206711" class="icon" viewBox="0 0 1024 1024" version="1.1" xmlns="http://www.w3.org/2000/svg" p-id="8530" xmlns:xlink="http://www.w3.org/1999/xlink" width="64" height="64"><defs><style type="text/css"></style></defs><path d="M350.321714 76.893274c-41.631166 0-75.558883 33.827433-75.558883 75.475995L274.762831 871.614357c0 41.627073 33.926694 75.491345 75.558883 75.491345l323.756685 0c41.557488 0 75.466786-33.864272 75.466786-75.491345L749.545184 152.36927c0-41.648562-33.910321-75.475995-75.466786-75.475995L350.321714 76.893274 350.321714 76.893274zM703.650925 795.23069 320.692906 795.23069l0-566.461379 382.958018 0L703.650925 795.23069 703.650925 795.23069zM473.188043 867.8885c0-21.515013 17.47807-39.029922 38.938847-39.029922 21.577434 0 39.146579 17.514909 39.146579 39.029922 0 21.585621-17.569144 39.138392-39.146579 39.138392C490.666112 907.026892 473.188043 889.474121 473.188043 867.8885L473.188043 867.8885zM549.691437 153.348574c4.930289 0 8.908904 3.966335 8.908904 8.875135 0 4.801353-3.979638 8.767688-8.908904 8.767688l-74.992995 0c-4.854565 0-8.876158-3.962242-8.876158-8.767688 0-4.9088 4.021593-8.875135 8.876158-8.875135L549.691437 153.348574 549.691437 153.348574zM549.691437 153.348574" p-id="8531"></path></svg>