<?xml version="1.0" standalone="no"?><!DOCTYPE svg PUBLIC "-//W3C//DTD SVG 1.1//EN" "http://www.w3.org/Graphics/SVG/1.1/DTD/svg11.dtd"><svg t="1565073404215" class="icon" viewBox="0 0 1024 1024" version="1.1" xmlns="http://www.w3.org/2000/svg" p-id="2233" xmlns:xlink="http://www.w3.org/1999/xlink" width="200" height="200"><defs><style type="text/css"></style></defs><path d="M877.838 897.668H144.224c-42.649 0-77.225-34.479-77.225-77.012V300.83c0-42.533 34.575-77.011 77.225-77.011h164.099l48.261-77.011c0-10.636 27.951-19.253 38.612-19.253h231.668c10.658 0 38.61 8.617 38.61 19.253l48.265 77.011h164.097c42.649 0 77.221 34.478 77.221 77.011v519.827c0.002 42.531-34.57 77.011-77.219 77.011zM511.03 300.83c-138.607 0-250.973 112.058-250.973 250.289S372.422 801.405 511.03 801.405c138.604 0 250.967-112.053 250.973-250.274v-0.022C761.997 412.881 649.635 300.83 511.03 300.83z m0 423.563c-95.959 0-173.749-77.574-173.749-173.273 0-95.698 77.79-173.277 173.749-173.277 95.96 0 173.749 77.579 173.749 173.277S606.99 724.393 511.03 724.393z" fill="" p-id="2234"></path></svg>