<?xml version="1.0" standalone="no"?><!DOCTYPE svg PUBLIC "-//W3C//DTD SVG 1.1//EN" "http://www.w3.org/Graphics/SVG/1.1/DTD/svg11.dtd"><svg t="1564641527880" class="icon" viewBox="0 0 1024 1024" version="1.1" xmlns="http://www.w3.org/2000/svg" p-id="3659" xmlns:xlink="http://www.w3.org/1999/xlink" width="16" height="16"><defs><style type="text/css"></style></defs><path d="M884.363636 535.272727c51.2 0 93.090909 41.890909 93.090909 93.090909v256c0 51.2-41.890909 93.090909-93.090909 93.090909H628.363636c-51.2 0-93.090909-41.890909-93.090909-93.090909V628.363636c0-51.2 41.890909-93.090909 93.090909-93.090909h256z m23.272728 349.090909V628.363636c0-12.613818-10.658909-23.272727-23.272728-23.272727H628.363636c-12.613818 0-23.272727 10.658909-23.272727 23.272727v256c0 12.613818 10.658909 23.272727 23.272727 23.272728h256c12.613818 0 23.272727-10.658909 23.272728-23.272728zM884.363636 46.545455c51.2 0 93.090909 41.890909 93.090909 93.090909v256c0 51.2-41.890909 93.090909-93.090909 93.090909H628.363636c-51.2 0-93.090909-41.890909-93.090909-93.090909V139.636364c0-51.2 41.890909-93.090909 93.090909-93.090909h256z m23.272728 349.090909V139.636364c0-12.613818-10.658909-23.272727-23.272728-23.272728H628.363636c-12.613818 0-23.272727 10.658909-23.272727 23.272728v256c0 12.613818 10.658909 23.272727 23.272727 23.272727h256c12.613818 0 23.272727-10.658909 23.272728-23.272727zM139.636364 46.545455h256c51.2 0 93.090909 41.890909 93.090909 93.090909v256c0 51.2-41.890909 93.090909-93.090909 93.090909H139.636364c-51.2 0-93.090909-41.890909-93.090909-93.090909V139.636364c0-51.2 41.890909-93.090909 93.090909-93.090909z m279.272727 349.090909V139.636364c0-12.613818-10.658909-23.272727-23.272727-23.272728H139.636364c-12.613818 0-23.272727 10.658909-23.272728 23.272728v256c0 12.613818 10.658909 23.272727 23.272728 23.272727h256c12.613818 0 23.272727-10.658909 23.272727-23.272727z m-23.272727 139.636363c51.2 0 93.090909 41.890909 93.090909 93.090909v256c0 51.2-41.890909 93.090909-93.090909 93.090909H139.636364c-51.2 0-93.090909-41.890909-93.090909-93.090909V628.363636c0-51.2 41.890909-93.090909 93.090909-93.090909h256z m23.272727 349.090909V628.363636c0-12.613818-10.658909-23.272727-23.272727-23.272727H139.636364c-12.613818 0-23.272727 10.658909-23.272728 23.272727v256c0 12.613818 10.658909 23.272727 23.272728 23.272728h256c12.613818 0 23.272727-10.658909 23.272727-23.272728z" fill="#d81e06" p-id="3660"></path></svg>