<?xml version="1.0" standalone="no"?><!DOCTYPE svg PUBLIC "-//W3C//DTD SVG 1.1//EN" "http://www.w3.org/Graphics/SVG/1.1/DTD/svg11.dtd"><svg t="1567483138506" class="icon" viewBox="0 0 1024 1024" version="1.1" xmlns="http://www.w3.org/2000/svg" p-id="2004" xmlns:xlink="http://www.w3.org/1999/xlink" width="200" height="200"><defs><style type="text/css"></style></defs><path d="M512 77.482667A434.517333 434.517333 0 1 1 77.482667 512 435.029333 435.029333 0 0 1 512 77.482667M512 0a512 512 0 1 0 512 512A512 512 0 0 0 512 0z" fill="#2c2c2c" p-id="2005"></path><path d="M399.872 738.816A38.4 38.4 0 0 1 361.472 699.733333V324.266667a38.4 38.4 0 0 1 57.514667-34.133334l326.314666 187.733334a38.4 38.4 0 0 1 0 66.56L418.986667 733.866667a38.4 38.4 0 0 1-19.114667 4.949333z m38.4-348.842667v243.882667L648.533333 512z" fill="#d81e06" p-id="2006"></path></svg>