<?xml version="1.0" standalone="no"?><!DOCTYPE svg PUBLIC "-//W3C//DTD SVG 1.1//EN" "http://www.w3.org/Graphics/SVG/1.1/DTD/svg11.dtd"><svg t="1565192130936" class="icon" viewBox="0 0 1024 1024" version="1.1" xmlns="http://www.w3.org/2000/svg" p-id="6425" xmlns:xlink="http://www.w3.org/1999/xlink" width="200" height="200"><defs><style type="text/css"></style></defs><path d="M301.917091 179.176727c15.197091 0 29.021091 4.933818 38.190545 16.965818 10.821818 14.196364 38.539636 114.036364 47.453091 146.804364a18.618182 18.618182 0 0 1-4.747636 17.989818l-56.925091 57.506909a27.554909 27.554909 0 0 0-5.957818 29.812364c47.941818 117.387636 147.176727 213.061818 253.696 251.997091a18.571636 18.571636 0 0 0 19.525818-4.258909l55.342545-54.690909a18.664727 18.664727 0 0 1 16.523637-5.073455c34.117818 6.306909 148.48 28.16 163.84 39.563637 14.196364 10.519273 19.991273 37.003636 12.962909 63.185454-6.725818 25.041455-51.060364 105.844364-141.265455 105.844364a156.625455 156.625455 0 0 1-12.730181-0.512c-98.792727-8.075636-213.690182-75.636364-332.986182-191.348364-119.296-115.735273-185.739636-266.961455-174.405818-356.352 10.193455-80.360727 82.338909-110.382545 102.120727-115.060364 6.516364-1.536 13.056-2.373818 19.362909-2.373818z m0-39.540363c-9.192727 0-18.757818 1.163636-28.462546 3.444363-17.640727 4.189091-45.521455 16.151273-70.865454 37.236364-34.56 28.788364-55.784727 67.258182-61.393455 111.313454-3.397818 26.810182-1.256727 57.367273 6.376728 90.856728 7.214545 31.697455 19.083636 65.117091 35.351272 99.374545a667.531636 667.531636 0 0 0 60.602182 102.190546 721.361455 721.361455 0 0 0 83.781818 97.28c62.161455 60.322909 123.368727 108.055273 181.922909 141.893818 61.672727 35.653818 120.692364 56.017455 175.36 60.485818 5.352727 0.418909 10.705455 0.651636 15.965091 0.651636 49.128727 0 94.091636-19.083636 130.001455-55.202909 28.322909-28.485818 44.357818-60.881455 49.454545-79.941818a120.971636 120.971636 0 0 0 1.978182-55.808c-4.421818-21.224727-14.661818-38.306909-29.556363-49.338182-8.797091-6.539636-22.272-13.637818-89.949091-28.578909-34.792727-7.68-71.493818-14.661818-90.298182-18.152727a58.344727 58.344727 0 0 0-51.502546 15.825454l-45.707636 45.195637c-43.264-17.896727-85.341091-46.336-122.391273-82.850909a431.476364 431.476364 0 0 1-92.974545-134.935273l51.316363-51.828364a58.344727 58.344727 0 0 0 14.801455-56.180363c-4.654545-17.058909-13.847273-50.362182-23.342545-81.501091-18.013091-59.112727-25.111273-71.377455-30.813091-78.894546C355.560727 151.226182 330.845091 139.636364 301.917091 139.636364z" fill="#21A3DD" p-id="6426"></path></svg>