<?xml version="1.0" standalone="no"?><!DOCTYPE svg PUBLIC "-//W3C//DTD SVG 1.1//EN" "http://www.w3.org/Graphics/SVG/1.1/DTD/svg11.dtd"><svg t="1567072909707" class="icon" viewBox="0 0 1024 1024" version="1.1" xmlns="http://www.w3.org/2000/svg" p-id="10356" xmlns:xlink="http://www.w3.org/1999/xlink" width="200" height="200"><defs><style type="text/css"></style></defs><path d="M858.112 555.008c19.968 19.968 19.968 52.224 0 72.192L532.48 952.832c-19.968 19.968-52.224 19.968-72.192 0l-325.632-325.632c-19.968-19.968-19.968-52.224 0-72.192s52.224-19.968 72.192 0L496.64 844.8l289.28-289.792c10.24-9.728 23.04-14.848 36.352-14.848 13.312 0 26.624 5.12 35.84 14.848z" p-id="10357" fill="#1296db"></path><path d="M547.84 135.68v768c0 28.16-23.04 51.2-51.2 51.2s-51.2-23.04-51.2-51.2v-768c0-28.16 23.04-51.2 51.2-51.2s51.2 23.04 51.2 51.2z" p-id="10358" fill="#1296db"></path></svg>