<?xml version="1.0" standalone="no"?><!DOCTYPE svg PUBLIC "-//W3C//DTD SVG 1.1//EN" "http://www.w3.org/Graphics/SVG/1.1/DTD/svg11.dtd"><svg t="1567061031764" class="icon" viewBox="0 0 1024 1024" version="1.1" xmlns="http://www.w3.org/2000/svg" p-id="5254" xmlns:xlink="http://www.w3.org/1999/xlink" width="200" height="200"><defs><style type="text/css"></style></defs><path d="M586.154 153.27c-39.917-16.186-82.087-24.394-125.337-24.394s-85.418 8.207-125.335 24.395c-41.345 16.766-78.426 41.385-110.215 73.173-31.79 31.79-56.408 68.87-73.175 110.216-16.187 39.917-24.395 82.085-24.395 125.335s8.208 85.42 24.395 125.337c16.766 41.344 41.386 78.426 73.174 110.215 31.789 31.789 68.87 56.408 110.215 73.173 39.917 16.188 82.086 24.395 125.336 24.395s85.419-8.208 125.336-24.395c30.909-12.534 59.432-29.46 85.146-50.486l171.613 171.612 47.756-47.757-171.612-171.612c21.026-25.714 37.952-54.237 50.486-85.145 16.187-39.917 24.394-82.086 24.394-125.336s-8.208-85.42-24.394-125.336c-16.766-41.345-41.385-78.427-73.174-110.216s-68.87-56.408-110.214-73.173z m140.244 308.725c0.001 70.939-27.625 137.633-77.787 187.794-50.162 50.163-116.855 77.787-187.795 77.787-70.938 0-137.632-27.625-187.794-77.787-50.161-50.161-77.786-116.855-77.786-187.795 0-70.94 27.625-137.633 77.787-187.794 50.162-50.161 116.855-77.787 187.794-77.787 70.94 0 137.633 27.626 187.795 77.787 50.162 50.162 77.787 116.856 77.786 187.795z" fill="#515151" p-id="5255"></path></svg>