<?xml version="1.0" standalone="no"?><!DOCTYPE svg PUBLIC "-//W3C//DTD SVG 1.1//EN" "http://www.w3.org/Graphics/SVG/1.1/DTD/svg11.dtd"><svg t="1566823716349" class="icon" viewBox="0 0 1024 1024" version="1.1" xmlns="http://www.w3.org/2000/svg" p-id="4254" xmlns:xlink="http://www.w3.org/1999/xlink" width="200" height="200"><defs><style type="text/css"></style></defs><path d="M960 412.8c0-3.2 0-6.4-3.2-9.6v-3.2c0-3.2-3.2-6.4-6.4-9.6-3.2-3.2-3.2-3.2-6.4-3.2L800 307.2V124.8C800 73.6 761.6 32 710.4 32H313.6C262.4 32 224 73.6 224 124.8v182.4l-144 83.2c-3.2 0-3.2 3.2-6.4 3.2-3.2 3.2-3.2 6.4-6.4 9.6v3.2c-3.2 3.2-3.2 3.2-3.2 6.4V896c0 54.4 41.6 96 92.8 96h713.6c51.2 0 92.8-41.6 92.8-96L960 412.8c0 3.2 0 3.2 0 0z m-102.4 0l-57.6 22.4v-57.6l57.6 35.2zM313.6 96h396.8c16 0 25.6 12.8 25.6 28.8v342.4l-224 96-224-96V124.8c0-16 9.6-28.8 25.6-28.8zM224 380.8v57.6l-57.6-25.6 57.6-32zM867.2 928H156.8c-16 0-28.8-12.8-28.8-32V464l371.2 160c3.2 3.2 9.6 3.2 12.8 3.2s9.6 0 12.8-3.2l371.2-160V896c0 19.2-12.8 32-28.8 32z" p-id="4255" fill="#515151"></path><path d="M384 256h256c19.2 0 32-12.8 32-32s-12.8-32-32-32h-256c-19.2 0-32 12.8-32 32s12.8 32 32 32zM384 416h160c19.2 0 32-12.8 32-32s-12.8-32-32-32h-160c-19.2 0-32 12.8-32 32s12.8 32 32 32z" p-id="4256" fill="#515151"></path></svg>