<?xml version="1.0" standalone="no"?><!DOCTYPE svg PUBLIC "-//W3C//DTD SVG 1.1//EN" "http://www.w3.org/Graphics/SVG/1.1/DTD/svg11.dtd"><svg t="1566823377764" class="icon" viewBox="0 0 1024 1024" version="1.1" xmlns="http://www.w3.org/2000/svg" p-id="2674" xmlns:xlink="http://www.w3.org/1999/xlink" width="200" height="200"><defs><style type="text/css"></style></defs><path d="M960 768l-64 0L896 448c0-166.4-108.8-313.6-262.4-364.8C614.4 32 569.6 0 512 0S409.6 32 390.4 83.2C236.8 134.4 128 281.6 128 448l0 320L64 768c-38.4 0-64 25.6-64 64s25.6 64 64 64l320 0c0 70.4 57.6 128 128 128s128-57.6 128-128l320 0c38.4 0 64-25.6 64-64S998.4 768 960 768zM256 768 256 448c0-140.8 115.2-256 256-256s256 115.2 256 256l0 320L256 768z" p-id="2675" fill="#515151"></path></svg>