<?xml version="1.0" standalone="no"?><!DOCTYPE svg PUBLIC "-//W3C//DTD SVG 1.1//EN" "http://www.w3.org/Graphics/SVG/1.1/DTD/svg11.dtd"><svg t="1567055819287" class="icon" viewBox="0 0 1024 1024" version="1.1" xmlns="http://www.w3.org/2000/svg" p-id="7767" xmlns:xlink="http://www.w3.org/1999/xlink" width="200" height="200"><defs><style type="text/css"></style></defs><path d="M787.692308 630.153846V118.153846a39.384615 39.384615 0 0 0-39.384616-39.384615H275.692308a39.384615 39.384615 0 0 0-39.384616 39.384615v512h551.384616z m0 78.769231H236.307692v196.923077a39.384615 39.384615 0 0 0 39.384616 39.384615h472.615384a39.384615 39.384615 0 0 0 39.384616-39.384615v-196.923077zM275.692308 0h472.615384a118.153846 118.153846 0 0 1 118.153846 118.153846v787.692308a118.153846 118.153846 0 0 1-118.153846 118.153846H275.692308a118.153846 118.153846 0 0 1-118.153846-118.153846V118.153846a118.153846 118.153846 0 0 1 118.153846-118.153846z m236.307692 905.846154a78.769231 78.769231 0 1 1 0-157.538462 78.769231 78.769231 0 0 1 0 157.538462z" fill="#1296db" p-id="7768"></path></svg>