<?xml version="1.0" standalone="no"?><!DOCTYPE svg PUBLIC "-//W3C//DTD SVG 1.1//EN" "http://www.w3.org/Graphics/SVG/1.1/DTD/svg11.dtd"><svg t="1567060897039" class="icon" viewBox="0 0 1024 1024" version="1.1" xmlns="http://www.w3.org/2000/svg" p-id="4470" xmlns:xlink="http://www.w3.org/1999/xlink" width="200" height="200"><defs><style type="text/css"></style></defs><path d="M884.4 572.7h-268c-24.1 0-43.6 19.5-43.6 43.6v268c0 24.1 19.5 43.6 43.6 43.6h268c24.1 0 43.6-19.5 43.6-43.6v-268c0-24.1-19.5-43.6-43.6-43.6zM884.4 98.9h-268c-24.1 0-43.6 19.5-43.6 43.6v268c0 24.1 19.5 43.6 43.6 43.6h268c24.1 0 43.6-19.5 43.6-43.6v-268c0-24-19.5-43.6-43.6-43.6zM410.6 572.7h-268c-24.1 0-43.6 19.5-43.6 43.6v268c0 24.1 19.5 43.6 43.6 43.6h268c24.1 0 43.6-19.5 43.6-43.6v-268c0-24.1-19.5-43.6-43.6-43.6zM410.6 98.9h-268c-24.1 0-43.6 19.5-43.6 43.6v268c0 24.1 19.5 43.6 43.6 43.6h268c24.1 0 43.6-19.5 43.6-43.6v-268c0-24-19.5-43.6-43.6-43.6z" p-id="4471" fill="#515151"></path></svg>