<?xml version="1.0" standalone="no"?><!DOCTYPE svg PUBLIC "-//W3C//DTD SVG 1.1//EN" "http://www.w3.org/Graphics/SVG/1.1/DTD/svg11.dtd"><svg t="1567067633573" class="icon" viewBox="0 0 1024 1024" version="1.1" xmlns="http://www.w3.org/2000/svg" p-id="8387" xmlns:xlink="http://www.w3.org/1999/xlink" width="200" height="200"><defs><style type="text/css"></style></defs><path d="M747.466714 173.048265c27.509948 0 46.718325 18.921171 46.718325 46.013403l0 464.754696 83.516376-91.066057c11.408065-11.376687 21.249793-16.336924 32.694433-16.336924 27.30109 0 49.511631 20.644203 49.511631 46.013403 0 12.509718-4.766968 23.891801-13.788851 32.918881l-162.067718 181.620661c-12.577672 9.794759-23.557428 13.987317-36.589392 13.987317-14.128221 0-26.815419-4.89728-35.72278-13.794048l-164.939171-180.9731c-5.664759-9.481571-11.073892-19.928888-11.073892-33.759511 0-24.51298 21.500423-46.013403 46.013403-46.013403 12.415782 0 26.027154 6.202595 36.411913 16.582157l83.297125 90.815627 0-464.7495C701.458507 191.113217 719.518263 173.048265 747.466714 173.048265zM422.610966 755.721213c0-26.836405-21.756249-48.592654-48.592654-48.592654L112.687494 707.128559c-26.836405 0-48.592654 21.756249-48.592654 48.592654l0 0c0 26.836405 21.756249 48.592654 48.592654 48.592654l261.331018 0C400.854717 804.313867 422.610966 782.557618 422.610966 755.721213L422.610966 755.721213zM422.610966 512.001055c0-26.836405-21.756249-48.592654-48.592654-48.592654L112.687494 463.408401c-26.836405 0-48.592654 21.756249-48.592654 48.592654l0 0c0 26.836205 21.756249 48.592654 48.592654 48.592654l261.331018 0C400.854717 560.593709 422.610966 538.83746 422.610966 512.001055L422.610966 512.001055zM422.610966 268.280898c0-26.836405-21.756249-48.592654-48.592654-48.592654L112.687494 219.688243c-26.836405 0-48.592654 21.756249-48.592654 48.592654l0 0c0 26.836405 21.756249 48.592654 48.592654 48.592654l261.331018 0C400.854717 316.873552 422.610966 295.117302 422.610966 268.280898L422.610966 268.280898z" p-id="8388" fill="#515151"></path></svg>