<?xml version="1.0" standalone="no"?><!DOCTYPE svg PUBLIC "-//W3C//DTD SVG 1.1//EN" "http://www.w3.org/Graphics/SVG/1.1/DTD/svg11.dtd"><svg t="1567065563181" class="icon" viewBox="0 0 1024 1024" version="1.1" xmlns="http://www.w3.org/2000/svg" p-id="2507" xmlns:xlink="http://www.w3.org/1999/xlink" width="200" height="200"><defs><style type="text/css"></style></defs><path d="M191.926857 1022.610286A191.926857 191.926857 0 0 1 0 830.683429v-383.268572a64 64 0 1 1 128 0v383.634286a64 64 0 0 0 63.926857 64h639.707429a64 64 0 0 0 64-64v-383.268572a64 64 0 1 1 127.926857 0v383.268572a191.926857 191.926857 0 0 1-191.926857 191.926857l-639.707429-0.365714zM447.780571 639.268571V218.331429l-82.651428 82.651428A64 64 0 0 1 274.578286 210.651429L466.578286 18.797714a64 64 0 0 1 90.477714 0l177.005714 176.786286A64 64 0 1 1 643.657143 285.842286l-67.876572-67.291429v420.571429a64 64 0 1 1-128 0z" p-id="2508" fill="#ffffff"></path></svg>