<?xml version="1.0" standalone="no"?><!DOCTYPE svg PUBLIC "-//W3C//DTD SVG 1.1//EN" "http://www.w3.org/Graphics/SVG/1.1/DTD/svg11.dtd"><svg t="1564625372641" class="icon" viewBox="0 0 1024 1024" version="1.1" xmlns="http://www.w3.org/2000/svg" p-id="3664" width="16" height="16" xmlns:xlink="http://www.w3.org/1999/xlink"><defs><style type="text/css"></style></defs><path d="M500.363636 914.618182h-395.636363c-60.509091 0-102.4-44.218182-102.4-102.4C0 605.090909 0 404.945455 0 211.781818c0-58.181818 46.545455-100.072727 109.381818-102.4h791.272727c79.127273 0 121.018182 39.563636 121.018182 121.018182V539.927273c0 6.981818 0 13.963636-4.654545 18.618182-9.309091 11.636364-18.618182 20.945455-27.927273 20.945454-13.963636 0-27.927273-13.963636-32.581818-23.272727-4.654545-9.309091-2.327273-18.618182-2.327273-27.927273V232.727273c-4.654545 2.327273-6.981818 6.981818-9.309091 9.309091L563.2 572.509091c-13.963636 11.636364-23.272727 18.618182-34.909091 18.618182s-20.945455-6.981818-34.909091-18.618182L79.127273 237.381818c-4.654545-4.654545-9.309091-6.981818-13.963637-11.636363V791.272727c0 41.890909 16.290909 58.181818 58.181819 58.181818h774.981818c44.218182 0 58.181818-16.290909 60.509091-60.50909v-18.618182-39.563637c0-20.945455 11.636364-34.909091 32.581818-34.909091 20.945455 0 32.581818 13.963636 32.581818 34.909091V814.545455c-4.654545 55.854545-46.545455 97.745455-104.727273 97.745454-139.636364 2.327273-279.272727 2.327273-418.909091 2.327273z m27.927273-397.963637L914.618182 176.872727H114.036364l414.254545 339.781818z" p-id="3665"></path></svg>